<mxfile host="app.diagrams.net" agent="Mozilla/5.0 (Windows NT 10.0; Win64; x64) AppleWebKit/537.36 (KHTML, like Gecko) Chrome/129.0.0.0 Safari/537.36" version="24.7.17">
  <diagram name="Page-1" id="nAmXncyiV5FKN-tAdYIz">
    <mxGraphModel dx="328" dy="174" grid="1" gridSize="1" guides="1" tooltips="1" connect="1" arrows="1" fold="1" page="1" pageScale="1" pageWidth="850" pageHeight="1100" math="1" shadow="0">
      <root>
        <mxCell id="0" />
        <mxCell id="1" parent="0" />
        <mxCell id="SWKvxhQh1QzlWY98uZab-1" value="" style="pointerEvents=1;verticalLabelPosition=bottom;shadow=0;dashed=0;align=center;html=1;verticalAlign=top;shape=mxgraph.electrical.signal_sources.source;aspect=fixed;points=[[0.5,0,0],[1,0.5,0],[0.5,1,0],[0,0.5,0]];elSignalType=dc3;" vertex="1" parent="1">
          <mxGeometry x="200" y="196" width="29" height="29" as="geometry" />
        </mxCell>
        <mxCell id="SWKvxhQh1QzlWY98uZab-2" value="" style="pointerEvents=1;verticalLabelPosition=bottom;shadow=0;dashed=0;align=center;html=1;verticalAlign=top;shape=mxgraph.electrical.resistors.resistor_2;" vertex="1" parent="1">
          <mxGeometry x="239" y="156" width="66" height="8" as="geometry" />
        </mxCell>
        <mxCell id="SWKvxhQh1QzlWY98uZab-3" value="" style="pointerEvents=1;verticalLabelPosition=bottom;shadow=0;dashed=0;align=center;html=1;verticalAlign=top;shape=mxgraph.electrical.inductors.inductor_3;" vertex="1" parent="1">
          <mxGeometry x="309" y="156" width="58" height="4" as="geometry" />
        </mxCell>
        <mxCell id="SWKvxhQh1QzlWY98uZab-4" style="edgeStyle=orthogonalEdgeStyle;rounded=0;orthogonalLoop=1;jettySize=auto;html=1;exitX=0.5;exitY=0;exitDx=0;exitDy=0;exitPerimeter=0;entryX=0;entryY=0.5;entryDx=0;entryDy=0;entryPerimeter=0;endArrow=none;endFill=0;" edge="1" parent="1" source="SWKvxhQh1QzlWY98uZab-1" target="SWKvxhQh1QzlWY98uZab-2">
          <mxGeometry relative="1" as="geometry" />
        </mxCell>
        <mxCell id="SWKvxhQh1QzlWY98uZab-7" value="&lt;font style=&quot;font-size: 8px;&quot;&gt;$$R_a$$&lt;/font&gt;" style="text;html=1;align=center;verticalAlign=middle;whiteSpace=wrap;rounded=0;" vertex="1" parent="1">
          <mxGeometry x="255.5" y="140" width="33" height="16" as="geometry" />
        </mxCell>
        <mxCell id="SWKvxhQh1QzlWY98uZab-8" value="&lt;font style=&quot;font-size: 8px;&quot;&gt;$$v_a(t)$$&lt;/font&gt;" style="text;html=1;align=center;verticalAlign=middle;whiteSpace=wrap;rounded=0;" vertex="1" parent="1">
          <mxGeometry x="180" y="202.5" width="16" height="16" as="geometry" />
        </mxCell>
        <mxCell id="SWKvxhQh1QzlWY98uZab-9" value="&lt;font style=&quot;font-size: 8px;&quot;&gt;$$L_a$$&lt;/font&gt;" style="text;html=1;align=center;verticalAlign=middle;whiteSpace=wrap;rounded=0;" vertex="1" parent="1">
          <mxGeometry x="322" y="139" width="32" height="16" as="geometry" />
        </mxCell>
        <mxCell id="SWKvxhQh1QzlWY98uZab-11" style="edgeStyle=orthogonalEdgeStyle;rounded=0;orthogonalLoop=1;jettySize=auto;html=1;exitX=1;exitY=0.5;exitDx=0;exitDy=0;exitPerimeter=0;entryX=0;entryY=1;entryDx=0;entryDy=0;entryPerimeter=0;endArrow=none;endFill=0;" edge="1" parent="1" source="SWKvxhQh1QzlWY98uZab-2" target="SWKvxhQh1QzlWY98uZab-3">
          <mxGeometry relative="1" as="geometry" />
        </mxCell>
        <mxCell id="SWKvxhQh1QzlWY98uZab-12" value="" style="shape=cylinder3;whiteSpace=wrap;html=1;boundedLbl=1;backgroundOutline=1;size=4.776863539514466;rotation=-90;" vertex="1" parent="1">
          <mxGeometry x="425" y="193" width="14" height="33" as="geometry" />
        </mxCell>
        <mxCell id="SWKvxhQh1QzlWY98uZab-13" value="&lt;span style=&quot;font-size: 8px;&quot;&gt;Rotor&lt;/span&gt;" style="text;html=1;align=center;verticalAlign=middle;whiteSpace=wrap;rounded=0;" vertex="1" parent="1">
          <mxGeometry x="424" y="217.5" width="18" height="12" as="geometry" />
        </mxCell>
        <mxCell id="SWKvxhQh1QzlWY98uZab-14" value="" style="curved=1;endArrow=classic;html=1;rounded=0;endSize=1;" edge="1" parent="1">
          <mxGeometry width="50" height="50" relative="1" as="geometry">
            <mxPoint x="392" y="213.5" as="sourcePoint" />
            <mxPoint x="392" y="205.5" as="targetPoint" />
            <Array as="points">
              <mxPoint x="392" y="221.5" />
              <mxPoint x="408" y="221.5" />
              <mxPoint x="408" y="197.5" />
              <mxPoint x="392" y="197.5" />
            </Array>
          </mxGeometry>
        </mxCell>
        <mxCell id="SWKvxhQh1QzlWY98uZab-15" value="$$\theta_m(t)$$" style="text;html=1;align=center;verticalAlign=middle;whiteSpace=wrap;rounded=0;fontSize=8;" vertex="1" parent="1">
          <mxGeometry x="389" y="181" width="24" height="16" as="geometry" />
        </mxCell>
        <mxCell id="SWKvxhQh1QzlWY98uZab-16" value="" style="shape=mxgraph.electrical.electro-mechanical.motor_2;html=1;shadow=0;dashed=0;align=center;fontSize=30;strokeWidth=1;rotation=90;" vertex="1" parent="1">
          <mxGeometry x="356.25" y="199.25" width="36" height="21.5" as="geometry" />
        </mxCell>
        <mxCell id="SWKvxhQh1QzlWY98uZab-17" style="edgeStyle=orthogonalEdgeStyle;rounded=0;orthogonalLoop=1;jettySize=auto;html=1;exitX=1;exitY=0.5;exitDx=0;exitDy=0;exitPerimeter=0;entryX=0.5;entryY=1;entryDx=0;entryDy=0;entryPerimeter=0;endArrow=none;endFill=0;" edge="1" parent="1" source="SWKvxhQh1QzlWY98uZab-16" target="SWKvxhQh1QzlWY98uZab-1">
          <mxGeometry relative="1" as="geometry" />
        </mxCell>
        <mxCell id="SWKvxhQh1QzlWY98uZab-18" value="" style="endArrow=none;html=1;rounded=0;exitX=0.499;exitY=-0.004;exitDx=0;exitDy=0;exitPerimeter=0;entryX=0.464;entryY=0.136;entryDx=0;entryDy=0;entryPerimeter=0;" edge="1" parent="1" source="SWKvxhQh1QzlWY98uZab-16" target="SWKvxhQh1QzlWY98uZab-12">
          <mxGeometry width="50" height="50" relative="1" as="geometry">
            <mxPoint x="385" y="210" as="sourcePoint" />
            <mxPoint x="412" y="213" as="targetPoint" />
          </mxGeometry>
        </mxCell>
        <mxCell id="SWKvxhQh1QzlWY98uZab-19" value="M" style="text;html=1;align=center;verticalAlign=middle;whiteSpace=wrap;rounded=0;" vertex="1" parent="1">
          <mxGeometry x="361.25" y="204" width="26" height="11" as="geometry" />
        </mxCell>
        <mxCell id="SWKvxhQh1QzlWY98uZab-20" style="edgeStyle=orthogonalEdgeStyle;rounded=0;orthogonalLoop=1;jettySize=auto;html=1;exitX=1;exitY=1;exitDx=0;exitDy=0;exitPerimeter=0;entryX=0;entryY=0.5;entryDx=0;entryDy=0;entryPerimeter=0;endArrow=none;endFill=0;" edge="1" parent="1" source="SWKvxhQh1QzlWY98uZab-3" target="SWKvxhQh1QzlWY98uZab-16">
          <mxGeometry relative="1" as="geometry" />
        </mxCell>
        <mxCell id="SWKvxhQh1QzlWY98uZab-21" value="" style="endArrow=classic;html=1;rounded=0;" edge="1" parent="1">
          <mxGeometry width="50" height="50" relative="1" as="geometry">
            <mxPoint x="220" y="152" as="sourcePoint" />
            <mxPoint x="244" y="152" as="targetPoint" />
          </mxGeometry>
        </mxCell>
        <mxCell id="SWKvxhQh1QzlWY98uZab-22" value="&lt;font style=&quot;font-size: 8px;&quot;&gt;$$i_a(t)$$&lt;/font&gt;" style="text;html=1;align=center;verticalAlign=middle;whiteSpace=wrap;rounded=0;" vertex="1" parent="1">
          <mxGeometry x="220" y="138" width="12" height="8" as="geometry" />
        </mxCell>
        <mxCell id="SWKvxhQh1QzlWY98uZab-23" value="+&lt;div&gt;-&lt;/div&gt;" style="text;html=1;align=center;verticalAlign=middle;whiteSpace=wrap;rounded=0;" vertex="1" parent="1">
          <mxGeometry x="356.25" y="201" width="7" height="18" as="geometry" />
        </mxCell>
        <mxCell id="SWKvxhQh1QzlWY98uZab-25" value="&lt;font style=&quot;font-size: 8px;&quot;&gt;$$v_b(t) = K_b\dot{\theta}_m$$&lt;/font&gt;" style="text;html=1;align=center;verticalAlign=middle;whiteSpace=wrap;rounded=0;" vertex="1" parent="1">
          <mxGeometry x="304" y="199.5" width="48" height="21" as="geometry" />
        </mxCell>
      </root>
    </mxGraphModel>
  </diagram>
</mxfile>
